# xmcd
#
# Track frame offsets:
# 150
# 16241
# 28345
# 44242
# 58710
# 71520
# 88335
# 99028
# 110853
# 121255
# 129215
# 145626
# 155919
# 172284
# 189420
# 201754
# 218354
# 237459
# 253964
# 263935
#
# Disc length: 3919 seconds
#
# Revision: 0
# Processed by: cddbd v1.4PL0 Copyright (c) Steve Scherf et al.
# Submitted via: Audion 3.0.2 (http://www.panic.com/audion/)
#
DISCID=2f0f4d14
DTITLE=pogues - pogues rarities vol.2
DYEAR=1900
DGENRE=
TTITLE0=dirty old town live
TTITLE1=sally maclenanne live
TTITLE2=haunted
TTITLE3=junk theme
TTITLE4=hot dogs with everything
TTITLE5=teh good the bad and hte ugly
TTITLE6=rake at the gates of hell tonight
TTITLE7=if i should fall country version
TTITLE8=rabinga
TTITLE9=danny boy
TTITLE10=the irish rover
TTITLE11=the rare ould mountain dew
TTITLE12=unknown1
TTITLE13=a pair of brown eyes live
TTITLE14=sally maclenanee 2 live
TTITLE15=diry old town  2 live 
TTITLE16=if i whould fall alve veriosn
TTITLE17=jonny come lately
TTITLE18=unknown2
TTITLE19=yeah yeah yeah long verions
EXTD=
EXTT0=
EXTT1=
EXTT2=
EXTT3=
EXTT4=
EXTT5=
EXTT6=
EXTT7=
EXTT8=
EXTT9=
EXTT10=
EXTT11=
EXTT12=
EXTT13=
EXTT14=
EXTT15=
EXTT16=
EXTT17=
EXTT18=
EXTT19=
PLAYORDER=
